<?xml version="1.0" encoding="utf-8"?>
<!-- Generator: Adobe Illustrator 24.0.2, SVG Export Plug-In . SVG Version: 6.00 Build 0)  -->
<svg version="1.1" id="Calque_1" focusable="false" xmlns="http://www.w3.org/2000/svg" xmlns:xlink="http://www.w3.org/1999/xlink"
	 x="0px" y="0px" width="24" height="24" viewBox="0 0 24 24" style="enable-background:new 0 0 24 24;" xml:space="preserve">
<style type="text/css">
	.st0{fill:#FFFFFF;}
</style>
<path class="st0" d="M2.2,6.2h19.5c0.4,0,0.8-0.3,0.8-0.8V3.6c0-0.4-0.3-0.8-0.8-0.8H2.2c-0.4,0-0.8,0.3-0.8,0.8v1.9
	C1.5,5.9,1.8,6.2,2.2,6.2z M2.2,13.7h19.5c0.4,0,0.8-0.3,0.8-0.8v-1.9c0-0.4-0.3-0.8-0.8-0.8H2.2c-0.4,0-0.8,0.3-0.8,0.8v1.9
	C1.5,13.4,1.8,13.7,2.2,13.7z M2.2,21.2h19.5c0.4,0,0.8-0.3,0.8-0.8v-1.9c0-0.4-0.3-0.8-0.8-0.8H2.2c-0.4,0-0.8,0.3-0.8,0.8v1.9
	C1.5,20.9,1.8,21.2,2.2,21.2z"/>
</svg>
